<svg width="49" height="22" viewBox="0 0 49 22" fill="none" xmlns="http://www.w3.org/2000/svg">
<path fill-rule="evenodd" clip-rule="evenodd" d="M3.66732 20.167C2.6548 20.167 1.83398 19.3462 1.83398 18.3337L1.83398 3.66699C1.83398 2.65447 2.6548 1.83366 3.66732 1.83366H8.25065C9.26317 1.83366 10.084 2.65447 10.084 3.66699L10.084 18.3337C10.084 19.3462 9.26317 20.167 8.25065 20.167H3.66732ZM3.66732 3.66699L3.66732 18.3337H8.25065V3.66699H3.66732Z" fill="#493963"/>
<path fill-rule="evenodd" clip-rule="evenodd" d="M13.7507 20.167C12.7381 20.167 11.9173 19.3462 11.9173 18.3337V13.7503C11.9173 12.7378 12.7381 11.917 13.7507 11.917L18.334 11.917C19.3465 11.917 20.1673 12.7378 20.1673 13.7503V18.3337C20.1673 19.3462 19.3465 20.167 18.334 20.167H13.7507ZM13.7507 13.7503V18.3337H18.334V13.7503H13.7507Z" fill="#493963"/>
<path fill-rule="evenodd" clip-rule="evenodd" d="M13.7507 10.0837C12.7381 10.0837 11.9173 9.26285 11.9173 8.25033L11.9173 3.66699C11.9173 2.65447 12.7381 1.83366 13.7507 1.83366H18.334C19.3465 1.83366 20.1673 2.65447 20.1673 3.66699V8.25033C20.1673 9.26285 19.3465 10.0837 18.334 10.0837L13.7507 10.0837ZM13.7507 3.66699L13.7507 8.25033L18.334 8.25033V3.66699H13.7507Z" fill="#493963"/>
<path fill-rule="evenodd" clip-rule="evenodd" d="M30.666 11.0003C30.666 10.4941 31.0764 10.0837 31.5827 10.0837H44.416C44.9223 10.0837 45.3327 10.4941 45.3327 11.0003C45.3327 11.5066 44.9223 11.917 44.416 11.917H31.5827C31.0764 11.917 30.666 11.5066 30.666 11.0003Z" fill="#493963"/>
<path fill-rule="evenodd" clip-rule="evenodd" d="M37.9993 3.66699C38.5056 3.66699 38.916 4.0774 38.916 4.58366V17.417C38.916 17.9233 38.5056 18.3337 37.9993 18.3337C37.4931 18.3337 37.0827 17.9233 37.0827 17.417V4.58366C37.0827 4.0774 37.4931 3.66699 37.9993 3.66699Z" fill="#493963"/>
</svg>
