<svg width="91" height="40" viewBox="0 0 91 40" fill="none" xmlns="http://www.w3.org/2000/svg">
<circle cx="70.666" cy="20" r="20" fill="#ECEEEF"/>
<path fill-rule="evenodd" clip-rule="evenodd" d="M62.0742 19.9988C62.0742 19.4056 62.5551 18.9248 63.1483 18.9248H78.1853C78.7785 18.9248 79.2594 19.4056 79.2594 19.9988C79.2594 20.592 78.7785 21.0729 78.1853 21.0729H63.1483C62.5551 21.0729 62.0742 20.592 62.0742 19.9988Z" fill="#979DB1"/>
<path fill-rule="evenodd" clip-rule="evenodd" d="M70.6668 11.4062C71.26 11.4062 71.7409 11.8871 71.7409 12.4803V27.5174C71.7409 28.1106 71.26 28.5914 70.6668 28.5914C70.0736 28.5914 69.5927 28.1106 69.5927 27.5174V12.4803C69.5927 11.8871 70.0736 11.4062 70.6668 11.4062Z" fill="#979DB1"/>
<circle cx="20" cy="20" r="20" fill="#ECEEEF"/>
<path fill-rule="evenodd" clip-rule="evenodd" d="M12 30C10.8954 30 10 29.1046 10 28L10 12C10 10.8954 10.8954 10 12 10H17C18.1046 10 19 10.8954 19 12V28C19 29.1046 18.1046 30 17 30H12ZM12 12L12 28H17V12H12Z" fill="#979DB1"/>
<path fill-rule="evenodd" clip-rule="evenodd" d="M23 30C21.8954 30 21 29.1046 21 28V23C21 21.8954 21.8954 21 23 21H28C29.1046 21 30 21.8954 30 23V28C30 29.1046 29.1046 30 28 30H23ZM23 23V28H28V23H23Z" fill="#979DB1"/>
<path fill-rule="evenodd" clip-rule="evenodd" d="M23 19C21.8954 19 21 18.1046 21 17V12C21 10.8954 21.8954 10 23 10H28C29.1046 10 30 10.8954 30 12V17C30 18.1046 29.1046 19 28 19H23ZM23 12V17H28V12H23Z" fill="#979DB1"/>
</svg>
