<svg width="59" height="26" viewBox="0 0 59 26" fill="none" xmlns="http://www.w3.org/2000/svg">
<path fill-rule="evenodd" clip-rule="evenodd" d="M37.0742 12.8885C37.0742 12.2953 37.5551 11.8144 38.1483 11.8144H53.1853C53.7785 11.8144 54.2594 12.2953 54.2594 12.8885C54.2594 13.4817 53.7785 13.9626 53.1853 13.9626H38.1483C37.5551 13.9626 37.0742 13.4817 37.0742 12.8885Z" fill="#979DB1"/>
<path fill-rule="evenodd" clip-rule="evenodd" d="M45.6668 4.2959C46.26 4.2959 46.7409 4.77678 46.7409 5.36997V20.407C46.7409 21.0002 46.26 21.4811 45.6668 21.4811C45.0736 21.4811 44.5927 21.0002 44.5927 20.407V5.36997C44.5927 4.77678 45.0736 4.2959 45.6668 4.2959Z" fill="#979DB1"/>
<path fill-rule="evenodd" clip-rule="evenodd" d="M4 22.8896C2.89543 22.8896 2 21.9942 2 20.8896L2 4.88965C2 3.78508 2.89543 2.88965 4 2.88965H9C10.1046 2.88965 11 3.78508 11 4.88965L11 20.8896C11 21.9942 10.1046 22.8896 9 22.8896H4ZM4 4.88965L4 20.8896H9V4.88965H4Z" fill="#979DB1"/>
<path fill-rule="evenodd" clip-rule="evenodd" d="M15 22.8896C13.8954 22.8896 13 21.9942 13 20.8896V15.8896C13 14.7851 13.8954 13.8897 15 13.8897L20 13.8897C21.1046 13.8897 22 14.7851 22 15.8896V20.8896C22 21.9942 21.1046 22.8896 20 22.8896H15ZM15 15.8896V20.8896H20V15.8896H15Z" fill="#979DB1"/>
<path fill-rule="evenodd" clip-rule="evenodd" d="M15 11.8897C13.8954 11.8897 13 10.9942 13 9.88965L13 4.88965C13 3.78508 13.8954 2.88965 15 2.88965H20C21.1046 2.88965 22 3.78508 22 4.88965V9.88965C22 10.9942 21.1046 11.8897 20 11.8897L15 11.8897ZM15 4.88965L15 9.88965L20 9.88965V4.88965H15Z" fill="#979DB1"/>
</svg>
