<svg width="327" height="185" viewBox="0 0 327 185" fill="none" xmlns="http://www.w3.org/2000/svg">
<rect x="0.65" y="0.65" width="325.7" height="183.7" rx="19.35" fill="#F9F9F9" stroke="#ECECEC" stroke-width="1.3"/>
<g filter="url(#filter0_i_604_241)">
<path d="M155 74H161M161 74H167M161 74V80M161 74V68" stroke="#B465FF" stroke-width="3" stroke-linecap="round" stroke-linejoin="round"/>
</g>
<path d="M126.115 119.494H124.533V103.744H126.115V119.494ZM122.898 118.721H121.316V113.359H118.627V111.988H121.316V109.422H118.882C118.079 112.223 116.277 114.461 113.477 116.137L112.492 114.941C114.133 113.969 115.378 112.826 116.228 111.514C117.083 110.201 117.584 108.719 117.73 107.066H113.266V105.695H119.383C119.383 106.516 119.318 107.301 119.189 108.051H121.316V104.148H122.898V118.721ZM133.689 106.539C133.689 107.178 133.845 107.787 134.155 108.367C134.466 108.941 134.908 109.451 135.482 109.896C136.062 110.336 136.742 110.67 137.521 110.898L136.73 112.217C135.828 111.947 135.046 111.537 134.384 110.986C133.727 110.436 133.223 109.782 132.872 109.026C132.52 109.841 132.002 110.547 131.316 111.145C130.637 111.742 129.834 112.188 128.908 112.48L128.064 111.18C128.861 110.934 129.556 110.576 130.147 110.107C130.745 109.639 131.202 109.097 131.518 108.481C131.841 107.866 132.002 107.219 132.002 106.539V106.521H128.574V105.133H137.117V106.521H133.689V106.539ZM133.689 114.818C135.224 114.748 136.566 114.631 137.715 114.467L137.838 115.68C136.801 115.867 135.72 116.008 134.595 116.102C133.47 116.189 132.424 116.245 131.457 116.269C130.49 116.286 129.371 116.295 128.099 116.295L127.853 114.906C129.635 114.906 131.023 114.895 132.019 114.871V111.83H133.689V114.818ZM142.76 111.584H140.334V119.494H138.664V103.744H140.334V110.178H142.76V111.584ZM162.197 112.516H147.818V111.145H162.197V112.516ZM160.527 109.773H149.611V104.307H160.421V105.678H151.263V108.42H160.527V109.773ZM154.99 113.746C156.121 113.746 157.09 113.857 157.899 114.08C158.713 114.303 159.337 114.631 159.771 115.064C160.205 115.492 160.421 116.008 160.421 116.611C160.421 117.215 160.205 117.73 159.771 118.158C159.337 118.586 158.713 118.911 157.899 119.134C157.084 119.356 156.115 119.465 154.99 119.459C153.859 119.465 152.883 119.356 152.063 119.134C151.243 118.911 150.613 118.586 150.173 118.158C149.74 117.73 149.523 117.215 149.523 116.611C149.523 116.008 149.74 115.492 150.173 115.064C150.613 114.631 151.24 114.303 152.054 114.08C152.875 113.857 153.853 113.746 154.99 113.746ZM154.99 115.029C153.783 115.041 152.851 115.185 152.195 115.46C151.539 115.729 151.21 116.113 151.21 116.611C151.21 117.109 151.539 117.496 152.195 117.771C152.851 118.041 153.783 118.176 154.99 118.176C156.179 118.176 157.102 118.041 157.758 117.771C158.42 117.496 158.751 117.109 158.751 116.611C158.751 116.113 158.423 115.729 157.767 115.46C157.111 115.185 156.185 115.041 154.99 115.029ZM177.681 113.693H163.267V112.34H169.648V110.846H165.113V106.838H174.201V105.432H165.077V104.113H175.87V108.068H166.765V109.545H176.187V110.846H171.3V112.34H177.681V113.693ZM175.958 119.371H174.271V116.137H164.884V114.801H175.958V119.371ZM191.021 110.125H193.552V111.514H191.021V119.494H189.368V103.744H191.021V110.125ZM187.997 107.576H178.663V106.205H182.548V103.955H184.218V106.205H187.997V107.576ZM183.392 108.736C184.136 108.736 184.804 108.892 185.396 109.202C185.988 109.513 186.453 109.946 186.793 110.503C187.133 111.06 187.306 111.689 187.312 112.393C187.306 113.102 187.133 113.734 186.793 114.291C186.453 114.848 185.988 115.281 185.396 115.592C184.804 115.902 184.136 116.061 183.392 116.066C182.642 116.061 181.968 115.902 181.37 115.592C180.779 115.281 180.313 114.848 179.973 114.291C179.639 113.734 179.472 113.102 179.472 112.393C179.472 111.689 179.639 111.06 179.973 110.503C180.313 109.946 180.779 109.513 181.37 109.202C181.968 108.892 182.642 108.736 183.392 108.736ZM183.392 110.107C182.952 110.107 182.554 110.204 182.196 110.397C181.839 110.591 181.561 110.86 181.362 111.206C181.162 111.552 181.066 111.947 181.071 112.393C181.066 112.844 181.162 113.242 181.362 113.588C181.561 113.934 181.836 114.2 182.188 114.388C182.545 114.575 182.946 114.666 183.392 114.66C183.831 114.666 184.227 114.575 184.578 114.388C184.936 114.2 185.214 113.934 185.413 113.588C185.613 113.242 185.712 112.844 185.712 112.393C185.712 111.947 185.613 111.552 185.413 111.206C185.214 110.86 184.936 110.591 184.578 110.397C184.227 110.204 183.831 110.107 183.392 110.107ZM207.314 119.494H205.626V103.744H207.314V119.494ZM202.62 105.432C202.62 107.869 202.037 110.037 200.871 111.936C199.711 113.828 197.839 115.393 195.255 116.629L194.376 115.275C196.444 114.291 198.012 113.093 199.078 111.681C200.15 110.269 200.769 108.631 200.933 106.768H195.132V105.432H202.62Z" fill="black"/>
<defs>
<filter id="filter0_i_604_241" x="149" y="62" width="24" height="28" filterUnits="userSpaceOnUse" color-interpolation-filters="sRGB">
<feFlood flood-opacity="0" result="BackgroundImageFix"/>
<feBlend mode="normal" in="SourceGraphic" in2="BackgroundImageFix" result="shape"/>
<feColorMatrix in="SourceAlpha" type="matrix" values="0 0 0 0 0 0 0 0 0 0 0 0 0 0 0 0 0 0 127 0" result="hardAlpha"/>
<feOffset dy="4"/>
<feGaussianBlur stdDeviation="2"/>
<feComposite in2="hardAlpha" operator="arithmetic" k2="-1" k3="1"/>
<feColorMatrix type="matrix" values="0 0 0 0 0.568627 0 0 0 0 0.368627 0 0 0 0 0.933333 0 0 0 1 0"/>
<feBlend mode="normal" in2="shape" result="effect1_innerShadow_604_241"/>
</filter>
</defs>
</svg>
