<svg width="19" height="19" viewBox="0 0 19 19" fill="none" xmlns="http://www.w3.org/2000/svg">
<circle cx="9.5" cy="9.5" r="9.5" fill="#BBBBBB"/>
<path d="M8.50879 11.4648C8.51335 10.8997 8.56576 10.444 8.66602 10.0977C8.77083 9.7513 8.91667 9.47331 9.10352 9.26367C9.29036 9.04948 9.54557 8.84668 9.86914 8.65527C10.1973 8.4502 10.4502 8.22461 10.6279 7.97852C10.8057 7.73242 10.8945 7.45443 10.8945 7.14453C10.8945 6.89388 10.8376 6.67513 10.7236 6.48828C10.6097 6.29688 10.4479 6.15104 10.2383 6.05078C10.0332 5.94596 9.80762 5.89355 9.56152 5.89355C9.32454 5.89355 9.10352 5.94368 8.89844 6.04395C8.69336 6.13965 8.52474 6.29004 8.39258 6.49512C8.26042 6.7002 8.1875 6.94857 8.17383 7.24023H6.46484C6.48307 6.64779 6.63118 6.14421 6.90918 5.72949C7.18717 5.31022 7.55632 4.99577 8.0166 4.78613C8.47689 4.57194 8.99186 4.46484 9.56152 4.46484C10.1813 4.46484 10.7259 4.57422 11.1953 4.79297C11.6693 5.00716 12.0361 5.31478 12.2959 5.71582C12.5557 6.1123 12.6855 6.57943 12.6855 7.11719C12.6855 7.65039 12.5602 8.1084 12.3096 8.49121C12.0635 8.86947 11.708 9.20215 11.2432 9.48926C10.9697 9.64876 10.7533 9.8151 10.5938 9.98828C10.4342 10.1615 10.3135 10.3643 10.2314 10.5967C10.1494 10.8291 10.1061 11.1185 10.1016 11.4648V11.5947H8.50879V11.4648ZM9.34961 14.6094C9.1582 14.6094 8.98047 14.5615 8.81641 14.4658C8.65234 14.3656 8.52246 14.2357 8.42676 14.0762C8.33561 13.9121 8.29004 13.7344 8.29004 13.543C8.29004 13.3561 8.33561 13.1829 8.42676 13.0234C8.52246 12.8594 8.65234 12.7318 8.81641 12.6406C8.98047 12.5449 9.1582 12.4971 9.34961 12.4971C9.5319 12.4971 9.70508 12.5449 9.86914 12.6406C10.0332 12.7318 10.1631 12.8594 10.2588 13.0234C10.3545 13.1829 10.4023 13.3561 10.4023 13.543C10.4023 13.7344 10.3545 13.9121 10.2588 14.0762C10.1631 14.2357 10.0332 14.3656 9.86914 14.4658C9.70508 14.5615 9.5319 14.6094 9.34961 14.6094Z" fill="white"/>
</svg>
